<svg viewBox="4400 5100 3000 1800" xmlns="http://www.w3.org/2000/svg"><g transform="translate(0,12000) scale(1,-1)" fill="#ffffff"><path d="M6216 6740 c-39 -31 -42 -42 -21 -88 45 -98 184 -49 157 55 -15 63 -80 79 -136 33z"/><path d="M4524 6666 c5 -47 18 -57 93 -72 416 -82 402 -753 -18 -824 -71 -12 -79 -19 -79 -74 0 -59 1 -59 85 -45 506 84 610 789 151 1017 -145 72 -241 71 -232 -2z"/><path d="M6220 5944 c0 -495 -11 -564 -91 -564 -19 0 -29 -21 -29 -60 0 -69 30 -76 118 -31 111 57 122 117 122 649 l0 482 -60 0 -60 0 0 -476z"/><path d="M5400 6360 c-119 -64 -170 -163 -170 -330 0 -324 329 -496 592 -308 l62 43 -42 42 c-35 35 -48 38 -77 18 -119 -85 -259 -81 -347 9 -121 123 -102 135 219 142 l288 5 -9 108 c-21 251 -291 393 -516 271z m345 -139 c109 -122 86 -141 -175 -141 -249 0 -252 2 -184 102 92 136 256 154 359 39z"/><path d="M6745 6361 c-91 -42 -99 -55 -60 -108 23 -32 30 -31 105 8 145 76 310 16 310 -113 0 -46 -5 -48 -151 -48 -190 0 -278 -35 -322 -128 -125 -261 282 -444 519 -233 80 72 108 398 45 519 -71 137 -269 183 -446 103z m355 -432 c0 -143 -190 -226 -316 -138 -128 90 -25 209 180 209 l136 0 0 -71z"/></g></svg>
